<mxfile host="app.diagrams.net" modified="2024-04-12T09:11:40.517Z" agent="Mozilla/5.0 (Macintosh; Intel Mac OS X 10_15_7) AppleWebKit/605.1.15 (KHTML, like Gecko) Version/16.3 Safari/605.1.15" etag="78FCpGLJEniq7VJtThYs" version="24.2.3" type="github">
  <diagram name="Page-1" id="6133507b-19e7-1e82-6fc7-422aa6c4b21f">
    <mxGraphModel dx="172" dy="752" grid="1" gridSize="10" guides="1" tooltips="1" connect="1" arrows="1" fold="1" page="1" pageScale="1" pageWidth="1100" pageHeight="850" background="none" math="0" shadow="0">
      <root>
        <mxCell id="0" />
        <mxCell id="1" parent="0" />
        <mxCell id="_g1rf_pFKd1Ed4MJNkNQ-1" value="&lt;p style=&quot;margin:0px;margin-top:4px;text-align:center;&quot;&gt;&lt;i&gt;&amp;lt;&amp;lt;Interface&amp;gt;&amp;gt;&lt;/i&gt;&lt;br&gt;&lt;b&gt;MediaContent&lt;/b&gt;&lt;/p&gt;&lt;hr size=&quot;1&quot; style=&quot;border-style:solid;&quot;&gt;&lt;p style=&quot;margin:0px;margin-left:4px;&quot;&gt;&lt;/p&gt;&lt;p style=&quot;margin:0px;margin-left:4px;&quot;&gt;+ getAddress(): String&lt;br&gt;+ getTags(): Collection&amp;lt;Tags&amp;gt;&lt;/p&gt;&lt;p style=&quot;margin:0px;margin-left:4px;&quot;&gt;+ getAccessCount(): long&lt;/p&gt;&lt;p style=&quot;margin:0px;margin-left:4px;&quot;&gt;+ getSize(): long&lt;/p&gt;" style="verticalAlign=top;align=left;overflow=fill;html=1;whiteSpace=wrap;" parent="1" vertex="1">
          <mxGeometry x="1840" y="100" width="190" height="120" as="geometry" />
        </mxCell>
        <mxCell id="_g1rf_pFKd1Ed4MJNkNQ-2" value="&lt;p style=&quot;margin:0px;margin-top:4px;text-align:center;&quot;&gt;&lt;i&gt;&amp;lt;&amp;lt;Interface&amp;gt;&amp;gt;&lt;/i&gt;&lt;br&gt;&lt;b&gt;Audio&lt;/b&gt;&lt;/p&gt;&lt;hr size=&quot;1&quot; style=&quot;border-style:solid;&quot;&gt;&lt;p style=&quot;margin:0px;margin-left:4px;&quot;&gt;+ getSamplingRate(): int&lt;br&gt;&lt;/p&gt;" style="verticalAlign=top;align=left;overflow=fill;html=1;whiteSpace=wrap;" parent="1" vertex="1">
          <mxGeometry x="1610" y="320" width="190" height="80" as="geometry" />
        </mxCell>
        <mxCell id="_g1rf_pFKd1Ed4MJNkNQ-3" value="&lt;p style=&quot;margin:0px;margin-top:4px;text-align:center;&quot;&gt;&lt;i&gt;&amp;lt;&amp;lt;Interface&amp;gt;&amp;gt;&lt;/i&gt;&lt;br&gt;&lt;b&gt;Video&lt;/b&gt;&lt;/p&gt;&lt;hr size=&quot;1&quot; style=&quot;border-style:solid;&quot;&gt;&lt;p style=&quot;margin:0px;margin-left:4px;&quot;&gt;+ getResolution(): int&lt;br&gt;&lt;/p&gt;" style="verticalAlign=top;align=left;overflow=fill;html=1;whiteSpace=wrap;" parent="1" vertex="1">
          <mxGeometry x="1840" y="320" width="190" height="80" as="geometry" />
        </mxCell>
        <mxCell id="_g1rf_pFKd1Ed4MJNkNQ-4" value="&lt;p style=&quot;margin:0px;margin-top:4px;text-align:center;&quot;&gt;&lt;i&gt;&amp;lt;&amp;lt;Interface&amp;gt;&amp;gt;&lt;/i&gt;&lt;br&gt;&lt;b&gt;AudioVideo&lt;/b&gt;&lt;/p&gt;&lt;hr size=&quot;1&quot; style=&quot;border-style:solid;&quot;&gt;&lt;p style=&quot;margin:0px;margin-left:4px;&quot;&gt;&lt;br&gt;&lt;/p&gt;" style="verticalAlign=top;align=left;overflow=fill;html=1;whiteSpace=wrap;" parent="1" vertex="1">
          <mxGeometry x="1720" y="470" width="190" height="70" as="geometry" />
        </mxCell>
        <mxCell id="_g1rf_pFKd1Ed4MJNkNQ-5" value="&lt;p style=&quot;margin:0px;margin-top:4px;text-align:center;&quot;&gt;&lt;i&gt;&amp;lt;&amp;lt;Interface&amp;gt;&amp;gt;&lt;/i&gt;&lt;br&gt;&lt;b&gt;Uploadable&lt;/b&gt;&lt;/p&gt;&lt;hr size=&quot;1&quot; style=&quot;border-style:solid;&quot;&gt;&lt;p style=&quot;margin:0px;margin-left:4px;&quot;&gt;&lt;/p&gt;&lt;p style=&quot;margin:0px;margin-left:4px;&quot;&gt;+ getUploader(): Uploader&lt;br&gt;+ getAvailability(): Duration&lt;/p&gt;&lt;p style=&quot;margin:0px;margin-left:4px;&quot;&gt;+ getCost(): BigDecimal&lt;/p&gt;" style="verticalAlign=top;align=left;overflow=fill;html=1;whiteSpace=wrap;" parent="1" vertex="1">
          <mxGeometry x="1600" y="100" width="190" height="120" as="geometry" />
        </mxCell>
        <mxCell id="_g1rf_pFKd1Ed4MJNkNQ-6" value="Extends" style="endArrow=block;endSize=16;endFill=0;html=1;rounded=0;entryX=0.25;entryY=1;entryDx=0;entryDy=0;exitX=0.5;exitY=0;exitDx=0;exitDy=0;" parent="1" source="_g1rf_pFKd1Ed4MJNkNQ-2" target="_g1rf_pFKd1Ed4MJNkNQ-5" edge="1">
          <mxGeometry width="160" relative="1" as="geometry">
            <mxPoint x="1610" y="460" as="sourcePoint" />
            <mxPoint x="1720" y="360" as="targetPoint" />
          </mxGeometry>
        </mxCell>
        <mxCell id="_g1rf_pFKd1Ed4MJNkNQ-8" value="Extends" style="endArrow=block;endSize=16;endFill=0;html=1;rounded=0;entryX=0.5;entryY=1;entryDx=0;entryDy=0;exitX=0.25;exitY=0;exitDx=0;exitDy=0;" parent="1" source="_g1rf_pFKd1Ed4MJNkNQ-3" target="_g1rf_pFKd1Ed4MJNkNQ-5" edge="1">
          <mxGeometry width="160" relative="1" as="geometry">
            <mxPoint x="1560" y="360" as="sourcePoint" />
            <mxPoint x="1720" y="360" as="targetPoint" />
          </mxGeometry>
        </mxCell>
        <mxCell id="_g1rf_pFKd1Ed4MJNkNQ-9" value="Extends" style="endArrow=block;endSize=16;endFill=0;html=1;rounded=0;entryX=0.5;entryY=1;entryDx=0;entryDy=0;exitX=0.75;exitY=0;exitDx=0;exitDy=0;" parent="1" source="_g1rf_pFKd1Ed4MJNkNQ-2" target="_g1rf_pFKd1Ed4MJNkNQ-1" edge="1">
          <mxGeometry width="160" relative="1" as="geometry">
            <mxPoint x="1560" y="360" as="sourcePoint" />
            <mxPoint x="1720" y="360" as="targetPoint" />
          </mxGeometry>
        </mxCell>
        <mxCell id="_g1rf_pFKd1Ed4MJNkNQ-10" value="Extends" style="endArrow=block;endSize=16;endFill=0;html=1;rounded=0;entryX=0.75;entryY=1;entryDx=0;entryDy=0;exitX=0.5;exitY=0;exitDx=0;exitDy=0;" parent="1" source="_g1rf_pFKd1Ed4MJNkNQ-3" target="_g1rf_pFKd1Ed4MJNkNQ-1" edge="1">
          <mxGeometry width="160" relative="1" as="geometry">
            <mxPoint x="1560" y="360" as="sourcePoint" />
            <mxPoint x="1720" y="360" as="targetPoint" />
          </mxGeometry>
        </mxCell>
        <mxCell id="_g1rf_pFKd1Ed4MJNkNQ-11" value="Extends" style="endArrow=block;endSize=16;endFill=0;html=1;rounded=0;entryX=0.5;entryY=1;entryDx=0;entryDy=0;exitX=0.25;exitY=0;exitDx=0;exitDy=0;" parent="1" source="_g1rf_pFKd1Ed4MJNkNQ-4" target="_g1rf_pFKd1Ed4MJNkNQ-2" edge="1">
          <mxGeometry width="160" relative="1" as="geometry">
            <mxPoint x="1560" y="360" as="sourcePoint" />
            <mxPoint x="1720" y="360" as="targetPoint" />
          </mxGeometry>
        </mxCell>
        <mxCell id="_g1rf_pFKd1Ed4MJNkNQ-12" value="Extends" style="endArrow=block;endSize=16;endFill=0;html=1;rounded=0;entryX=0.5;entryY=1;entryDx=0;entryDy=0;exitX=0.75;exitY=0;exitDx=0;exitDy=0;" parent="1" source="_g1rf_pFKd1Ed4MJNkNQ-4" target="_g1rf_pFKd1Ed4MJNkNQ-3" edge="1">
          <mxGeometry width="160" relative="1" as="geometry">
            <mxPoint x="1560" y="360" as="sourcePoint" />
            <mxPoint x="1720" y="360" as="targetPoint" />
          </mxGeometry>
        </mxCell>
        <mxCell id="_g1rf_pFKd1Ed4MJNkNQ-13" value="&lt;p style=&quot;margin:0px;margin-top:4px;text-align:center;&quot;&gt;&lt;i&gt;&amp;lt;&amp;lt;Interface&amp;gt;&amp;gt;&lt;/i&gt;&lt;br&gt;&lt;b&gt;Uploader&lt;/b&gt;&lt;/p&gt;&lt;hr size=&quot;1&quot; style=&quot;border-style:solid;&quot;&gt;&lt;p style=&quot;margin:0px;margin-left:4px;&quot;&gt;+ getName(): String&lt;br&gt;&lt;/p&gt;" style="verticalAlign=top;align=left;overflow=fill;html=1;whiteSpace=wrap;" parent="1" vertex="1">
          <mxGeometry x="1320" y="100" width="190" height="80" as="geometry" />
        </mxCell>
        <mxCell id="nknM8wxPxXXfrUaLq7Xt-1" value="Admin" style="swimlane;fontStyle=1;align=center;verticalAlign=top;childLayout=stackLayout;horizontal=1;startSize=26;horizontalStack=0;resizeParent=1;resizeParentMax=0;resizeLast=0;collapsible=1;marginBottom=0;whiteSpace=wrap;html=1;" vertex="1" parent="1">
          <mxGeometry x="1180" y="300" width="210" height="170" as="geometry" />
        </mxCell>
        <mxCell id="nknM8wxPxXXfrUaLq7Xt-2" value="+ CAPACITY: int&lt;div&gt;+ addressCount: int&lt;/div&gt;&lt;div&gt;+ mediaList: List&amp;lt;MediaContent&amp;gt;&lt;/div&gt;&lt;div&gt;+ listUploader: List&amp;lt;Uploader&amp;gt;&lt;/div&gt;" style="text;strokeColor=none;fillColor=none;align=left;verticalAlign=top;spacingLeft=4;spacingRight=4;overflow=hidden;rotatable=0;points=[[0,0.5],[1,0.5]];portConstraint=eastwest;whiteSpace=wrap;html=1;" vertex="1" parent="nknM8wxPxXXfrUaLq7Xt-1">
          <mxGeometry y="26" width="210" height="64" as="geometry" />
        </mxCell>
        <mxCell id="nknM8wxPxXXfrUaLq7Xt-3" value="" style="line;strokeWidth=1;fillColor=none;align=left;verticalAlign=middle;spacingTop=-1;spacingLeft=3;spacingRight=3;rotatable=0;labelPosition=right;points=[];portConstraint=eastwest;strokeColor=inherit;" vertex="1" parent="nknM8wxPxXXfrUaLq7Xt-1">
          <mxGeometry y="90" width="210" height="8" as="geometry" />
        </mxCell>
        <mxCell id="nknM8wxPxXXfrUaLq7Xt-4" value="+ insert(MediaContent): String&lt;div&gt;+ delete(MediaContent): boolean&lt;/div&gt;&lt;div&gt;+ list(int): List&amp;lt;MediaContent&amp;gt;&lt;/div&gt;&lt;div&gt;+ update(): boolean&lt;/div&gt;" style="text;strokeColor=none;fillColor=none;align=left;verticalAlign=top;spacingLeft=4;spacingRight=4;overflow=hidden;rotatable=0;points=[[0,0.5],[1,0.5]];portConstraint=eastwest;whiteSpace=wrap;html=1;" vertex="1" parent="nknM8wxPxXXfrUaLq7Xt-1">
          <mxGeometry y="98" width="210" height="72" as="geometry" />
        </mxCell>
      </root>
    </mxGraphModel>
  </diagram>
</mxfile>
